<?xml version="1.0" encoding="UTF-8"?><svg id="a" xmlns="http://www.w3.org/2000/svg" width="16369.35" height="16378.65" viewBox="0 0 16369.35 16378.65"><g id="b"><path d="M2556.47,15791.36l-1727.46-.6c-25.04,0-46.08-34.9-45.25-51.08.85-16.61,15.91-48.21,43.54-48.21l1741.88.13c21.18,2.14,37.27,34.66,35.84,49.16-1.59,16.11-14.56,50.62-48.55,50.61Z"/><path d="M15540.9,15791.36l-1727.03-.7c-26.78-.01-43.96-28.25-47.43-43.47-4-17.53,8.01-55.7,38.02-55.72l1725.69-.82c31.31-.01,50.68,16.43,54.79,41.2,3.93,23.7-8.96,45.51-44.05,59.52Z"/><path d="M8211.56,7800.73c4.97,9.01,9.7,12.61,9.73,16.02.04,5.01-9.27,11.49-15.47,6.79l-138.29-104.83c-40.12,110.1-66.3,219.94-74.76,336.18l-31.14,430.68-6.12,440.68-6.12,592.27-1.36,174.53-151.55,119.71v-921.93l-17.58-606.31c-5.33-193.78-36.91-378.05-100.23-567.55l-155.78,105.32,105.37-184.22c-76.31-58.95-164.76-96.19-260.66-121.16l-302.83-78.86-14.75-8.79c-5.17-3.08-6.52-23.45.35-25.23l360-93.54c75.74-19.68,145.8-51.52,217.8-88.74l-92.15-183.84,150.37,107.82c86.9-181.54,103.97-586.12,103.97-586.12l4.08-379.92v-1099.31l12.23-332.63,10.19-951.17,2.04-361.05,6.12-504.78,5.87-733.97-6.02-86.35c-15.3-68.9-49.26-131.03-80.78-192.41-43.51-84.72-117.03-134.54-195.99-179.78-31.42-18.01-1.58-73.85,22.28-86.52,54.44-28.91,106.5-58.7,145.05-105.18,73.16-88.21,113.3-189.03,149.03-298.56l328.1-1005.59c3.86-11.84,18.39-14.03,24.42-12.49,6.79,1.74,14.75,9.67,18.34,20.15l132.39,385.89,1199.48,3548.68,771.18,2294.91,617.76,1867.77,662.29,1992.46c125.32,377.03,280.29,678.11,649.28,850.39,96.41,45.01,187.72,88.22,294.63,98.78l347.26,34.32-.1,90.96-472.55,6.12h-2456.5l-251.76-5.33-2.76-75.44c-.22-5.89,4.31-18.44,11.79-17.06,53.21,9.78,100.15-7.78,151.81-9.61,164.97-5.86,323.55-25.19,472.04-96.63,90.39-43.49,174.54-94.82,231.63-178.91,111.34-164.01,89.42-373.04,26.79-561.14l-198.32-595.6-1129.57-3396.38-608.81-1832.81-557.35-1678.76-146.77-418.57c-22.96,94.36-15.17,169.81-15.51,259.97l-6.12,2804.13v972.14s28.75,378.44,102.5,561.17l165.5-116.93-104.75,174.89c64.44,43.55,131.13,83.76,208.12,103.98l345.64,90.77c10.09,2.65,8.8,13.88,8.18,18.45-1.16,8.53-10.21,14.2-21.25,17.16l-245.68,65.88c-104.95,28.14-202.72,66.05-296.01,128.61l91.76,166.42Z"/><path d="M5185.81,9459.09c18.55-52.84,42.37-103,99.32-112.89,35.78-6.22,103.77,5.73,128.7,35.18,33.86,40,17.64,105.35,2.18,149.97l-96.84,279.51c-66.97,193.29-124.26,382.92-163.01,584.84-30.82,160.56-14.06,315.46,55.62,463.53,25.58,54.36,64.71,98.45,113.25,136.88,145.15,114.92,321.39,185.56,508.74,192.72,110.85,4.24,220.13,3.83,322.17-35.05l180.59-68.8c143.91-69.1,278.47-147.25,404.81-245.41l416.3-323.45,460.59-395.01,559.78-509.73,864.86-800.84,542.33-446.82,173.9-119.86,108.16,309.03c-277.2,204.42-536.64,418.03-793.95,644.41l-1108.95,975.67-799.93,652.61c-300.35,222.71-757.76,526.34-1116.31,585.76-218.36,36.19-429.61,19.59-650.84,19.22l-1050.6-6.12-486.72-8.15h-202.06l-1.01-90.16c316.31-2,603.84-117.53,821.88-350.71l139.08-165.55c119.56-172.33,207.22-354.86,286.98-550.5l280.99-800.26Z"/><path d="M4070.27,8061.07c383.14,505.65,884.92,805.89,1495.15,964.9,244.9,72.45,490.07,103.36,744.59,119.73l549.07,10.32c20.51.39,38.08,8.53,42.01,26.13,3.14,14.05-8.89,37.75-29.71,43.07l-247.75,63.3c-222.12,33.05-441.21,36.99-665.35,14.28-195.4-19.79-382.97-39.51-572.92-88.67l-519.46-175.27c-242.43-93.92-460.22-219.6-669.22-372.94-254.28-186.55-455.23-418.12-607.07-695.17-138.32-252.38-214.64-527.11-223.43-818.64-22.93-760.56,330.09-1453.24,931.15-1910,194.52-147.83,395.72-272.95,620.87-368.93,373.52-159.23,764.49-244.17,1169.29-272.36l567.42-1.59,391.77,34.22c227.25,19.85,443.73,69.26,666.23,126.81l-.03,201.24c-335.49-102.43-674-143.47-1020.69-171.23-160.09-12.82-310.44-26-469.77-10.14-250.44,11.96-491.59,48.28-731.8,121.97-181.31,55.62-351.91,114.51-520.15,202.96-204.12,107.31-389.83,236.65-563.11,388.73-170.29,149.45-305.9,320.88-421.98,514.82-158.77,265.26-256.13,556.37-270.4,866.88l-.31,242.87c22.94,343.98,147.79,668.46,355.6,942.71Z"/><path d="M13166.52,9809.78l174.3-189.11c145.33-203.27,253.15-442.77,266.73-699.16,17.59-332.2-113.32-663.13-344.29-899.06-197.36-201.6-452.04-320.27-726.48-370.82-476.33-87.73-908.86,39-1349.55,209.55l-225.19,87.15-93.83-289.8c273.06-135.08,556.49-231.46,855.15-285.76l430.19-42.22c531.03-10.56,1037.81,156.61,1360.31,591.97,276.86,373.75,350.36,880.28,182.41,1317.07-103.07,268.05-273.19,498.72-497,677.92-81.38,65.16-158.91,130.53-253.98,174.24-21.16,2.16-46.31-55.27-27.18-70.07,87.14-67.46,171.55-128.5,248.42-211.91Z"/><path d="M5630.08,8748.44c-14.78,45.08-28.2,64.61-60.7,77.86-36.43,14.85-63.69,2.93-99.05-18.04-28.42-16.86-58.94-37.86-46.22-78.79l251.8-809.71,820.94-2580.81,126.47-383.7c13.39-40.62,56.28-66.7,90.48-76.11,41.44-11.41,93.86-2.07,120.95,33.37,39.02,51.06,22.93,114.45,4.53,169.61l-120.7,361.75-507.49,1532.21-581,1772.35Z"/><path d="M6788.02,4403.28l201.41-633.16,510.57-1536.45c11.33-34.08,21.35-66.79,48.54-87.99,25.25-19.68,67.42-10.4,89.55,7.94,20.94,17.35,40.57,52.26,29.24,87.85l-698.13,2192.81c-15.02,47.18-62.18,65.55-104.44,60.15-31.52-4.02-92.22-42.49-76.75-91.15Z"/><path d="M7788.34,11440.64l-2.53-990.06,161.55-128.71-2.81,1114.39c-.1,41.14-46.4,61.7-74.61,60.93-26.34-.72-81.48-13.09-81.59-56.55Z"/><path d="M8813.36,5375l67.57,175.14c1.77,4.58-2.96,10.51-6.47,11.96-4.67,1.92-10.77,1.22-18.96-5.53-248.21-204.5-519.94-368.59-818.43-486.73l.53-187.12c263.3,97.52,510.67,222.67,729.97,396.59,25.75,21.76,34.69,66.9,45.79,95.69Z"/></g><path d="M2190.02,14127.76v-73.55c171.12-20.98,192.16-47.26,155.32-147.06-34.22-102.4-86.88-233.72-142.16-399.16h-568.6c-42.11,118.18-81.6,220.58-118.46,328.25-57.91,170.71-21.06,191.73,194.81,217.98v73.55h-605.5v-73.6c165.62-20.99,207.68-39.42,299.68-275.95l544.14-1379.77,84.12-15.79c165.6,449.43,346.99,946.16,512.59,1400.84,84.12,228.65,107.79,249.68,294.42,270.68v73.6h-650.35ZM1927.39,12727.13c-84.1,226.02-173.46,465.19-252.3,672.81h491.47l-239.17-672.81Z"/><path d="M4266.86,13690.26c-15.8,81.71-94.88,355.79-121.25,437.5h-1225.74v-73.81c239.88-23.7,260.96-36.89,260.96-260.89v-1042.62c0-223.38-26.26-236.53-236.49-257.56v-73.57h703.36v73.56c-209.7,21.03-238.53,31.54-238.53,257.54v1069.57c0,160.31,20.97,197.09,170.38,199.73,2.61,0,194.39,2.65,210.21,2.65,134.42,0,173.98-15.83,234.59-81.71,65.9-68.52,121.26-173.96,160.8-271.47l81.71,21.09Z"/><path d="M5588.62,12829.99c-23.69-83.9-55.28-170.4-84.24-217.57-42.11-70.78-68.44-89.13-213.22-89.13h-263.24v1276.62c0,204.46,21.06,233.29,271.15,249v78.85h-764.52v-73.16c244.05-15.77,265.03-42.07,265.03-249.93v-1281.38h-238.79c-144.33,0-186.31,15.77-230.92,94.71-31.5,52.63-52.49,115.79-86.61,213.14h-79.54c15.77-160.3,31.54-325.84,39.42-472.98h60.46c39.42,63.79,68.33,61.16,141.92,61.16h1040.76c73.59,0,94.62-10.64,134.04-61.16h63.59c0,123.19,10.53,311.93,23.69,463.98l-78.97,7.86Z"/><path d="M7245.8,13706.3c-15.75,68.91-86.72,341.95-113.01,421.47h-1277.15v-73.6c244.59-18.39,262.99-42.02,262.99-257.56v-1038.47c0-234.18-28.94-247.35-226.3-265.77v-73.05h804.15c247.03,0,349.53-2.66,381.05-5.32,2.64,66.29,13.15,265.09,23.67,405.58l-78.84,13.23c-23.67-90.12-49.93-145.77-78.86-201.46-42.04-87.46-102.49-106.01-260.16-106.01h-249.65c-81.47,0-86.73,7.94-86.73,84.84v579.78h292.06c197.33,0,210.5-39.42,242.06-218.14h81.57v540.26h-81.57c-34.2-189.76-55.26-216.1-244.69-216.1h-289.43v521.67c0,185.53,57.81,201.46,189.23,204.12h244.41c160.33,0,186.61-23.87,244.43-92.78,49.94-55.68,105.13-164.36,141.92-243.88l78.84,21.21Z"/><path d="M7429.53,12419.32h703.36v73.57c-205.68,18.39-242.61,36.78-242.61,270.71v452.03c52.57-5.24,113.03-47.3,189.27-120.9,147.2-139.3,323.33-317.98,444.24-454.67,78.86-89.36,70.98-123.51-42.05-139.3l-73.62-7.88v-73.57h638.12v73.21c-196.82,23.67-265.15,36.78-441.23,218.14-78.84,76.21-283.85,275.95-452.05,441.55,199.75,236.53,491.47,572.94,628.13,717.47,134.04,144.54,168.2,165.57,330.39,183.96v74.11h-416.89c-203.05-228.65-416.65-483.58-656.63-762.17-60.64-73.6-105.47-78.84-147.67-76.21v499.33c0,228.65,23.73,247.05,242.61,265.44v73.6h-703.36v-73.61c215.48-18.39,236.49-36.79,236.49-265.46v-1025.06c0-236.55-18.39-254.95-236.49-270.74v-73.58Z"/><path d="M10671.09,14127.76v-73.6c214.94-20.99,222.79-36.78,220.18-317.98l2.62-1072.31c-215.61,480.94-562.7,1232.6-654.75,1463.89h-68.36c-89.4-239.17-386.54-961.92-586.37-1437.62-44.7,919.86-47.34,1127.48-47.34,1177.42,2.64,147.17,68.36,168.2,247.17,186.6v73.6h-621.81v-73.61c150.85-15.76,213.28-47.3,234.08-189.21,15.61-115.67,18.22-210.28,85.84-1169.64,10.41-136.67-15.61-181.37-244.48-202.4v-73.58h457.65l580.83,1332.11,622.87-1332.11h458.91v73.21c-225,26.31-248.72,233.93-248.72,233.93l10.55,1009.72c10.55,281.19,18.46,294.35,250.41,317.98v73.6h-699.28Z"/><path d="M12552.83,14127.76v-73.55c171.12-20.98,192.16-47.26,155.32-147.06-34.22-102.4-86.88-233.72-142.16-399.16h-568.6c-42.11,118.18-81.6,220.58-118.46,328.25-57.91,170.71-21.06,191.73,194.81,217.98v73.55h-607.54v-73.6c165.62-20.99,207.68-39.42,299.68-275.95l544.14-1379.77,84.12-15.79c165.6,449.43,346.99,946.16,512.59,1400.84,84.12,228.65,107.79,249.68,294.42,270.68v73.6h-648.31ZM12289.29,12727.13c-84.1,226.02-173.46,465.19-252.3,672.81h491.47l-239.17-672.81Z"/><path d="M14865.4,14148.28c-34.16,0-63.06-2.64-97.22-5.27-191.84-13.11-294.31-63.04-409.92-225.97-97.24-133.99-191.84-299.52-275.92-433.55-52.55-84.07-86.71-99.85-220.72-99.85h-91.66v412.61c0,223.42,28.83,236.57,238.53,257.56v73.96h-701.32v-74.1c218.1-23.63,236.49-34.14,236.49-257.51v-1048.42c0-223.33-28.9-231.21-236.49-254.87v-73.55h670.08c191.82,0,320.58,23.63,420.44,89.34,107.73,68.31,178.67,186.56,178.67,346.85,0,225.97-144.51,367.84-338.97,451.94,47.29,81.46,160.3,257.51,239.13,375.75,97.22,139.27,147.15,204.94,207.59,270.66,70.94,76.19,131.38,105.09,191.82,120.84l-10.51,73.59ZM13894.05,13293.93c136.66,0,223.4-21.03,289.11-76.21,102.49-76.21,144.54-181.36,144.54-323.25,0-281.23-186.6-383.74-388.96-383.74-76.22,0-120.89,10.51-139.3,26.31-23.65,18.39-31.53,44.66-31.53,112.99v643.9h126.14Z"/><path d="M4638.52,15712.95c-93.84,12.09-99.9,21.19-99.9,110.49v127.44c0,52.99,1.53,102.94,9.14,143.81-94.43,21.19-217.81,54.49-345.75,54.49-345.76,0-555.95-213.45-555.95-517.69,0-319.4,261.98-510.14,566.61-510.14,155.36,0,269.6,30.28,316.81,37.86,3.05,56,10.67,148.35,22.85,243.71l-45.69,9.07c-36.55-128.66-80.72-183.14-176.68-214.94-35.03-12.11-97.48-19.67-141.66-19.67-233.04,0-383.83,158.94-383.83,435.95,0,240.69,124.9,479.86,420.4,479.86,51.79,0,99-10.59,129.47-25.74,31.98-18.15,51.78-34.82,51.78-96.88v-124.4c0-110.49-12.07-122.6-156.98-133.2v-43.91h389.4v43.91Z"/><path d="M5656.78,16137.29c-19.73,0-36.42-1.52-56.15-3.03-110.79-7.54-169.99-36.25-236.77-129.94-56.16-77.05-110.8-172.24-159.37-249.31-30.35-48.34-50.08-57.42-127.49-57.42h-53.17v237.65c0,128.68,16.76,136.25,138.63,148.35v42.13h-405.71v-42.83c125.97-13.59,136.59-19.63,136.59-148.08v-602.89c0-128.43-16.69-132.96-136.59-146.56v-42.3h387.03c110.79,0,185.16,13.59,242.84,51.38,62.22,39.28,103.21,107.28,103.21,199.46,0,129.94-83.48,211.53-195.79,259.89,27.31,46.85,92.59,148.08,138.12,216.07,56.15,80.09,84.99,117.85,119.9,155.64,40.97,43.81,75.88,60.43,110.79,69.49l-6.07,42.32ZM5096.49,15646.61c78.71,0,128.67-12.11,166.52-43.89,59.03-43.89,83.25-104.45,83.25-186.18,0-161.98-107.47-221.02-224.03-221.02-43.9,0-69.64,6.06-80.23,15.15-13.62,10.59-18.16,25.72-18.16,65.08v370.87h72.65Z"/><path d="M6217.62,15121.34c258.85,0,490.45,198.32,490.45,499.55,0,325.46-221.01,528.29-499.54,528.29s-502.55-221-502.55-505.58,192.24-522.25,511.64-522.25ZM6187.35,15177.36c-169.54,0-323.95,142.29-323.95,425.35s154.4,488.93,369.36,488.93c183.15,0,320.91-136.23,320.91-428.39,0-317.88-168.02-485.89-366.32-485.89Z"/><path d="M7888.24,15185.42c-95.98,6.06-131.02,30.28-134.07,99.92-1.52,34.82-4.57,98.38-4.57,237.65v163.25c0,154.22-18.15,272.15-105.84,364.38-71.06,74.09-173.87,96.76-278.19,96.76-87.7,0-181.44-18.15-247.96-69.55-90.72-69.53-134.57-173.86-134.57-350.76v-385.72c0-136.23-12.24-145.33-134.56-155.92v-42.37h397.55v42.37c-120.48,7.58-132.52,19.69-132.52,155.92v378.02c0,220.88,104.38,341.89,285.91,341.89,214.82,0,282.89-133.11,282.89-384.24v-154.02c0-139.27-4.54-196.78-7.57-237.65-4.55-68.12-39.39-93.86-151.45-99.92v-42.37h364.93v42.37Z"/><path d="M8362.34,15143.05c108.2,0,195.06,19.68,257.54,65.13,59.44,43.95,100.58,115.14,100.58,215.14,0,221.18-190.49,310.55-335.26,310.55-16.76,0-32-1.52-41.15-3.02l-105.15-27.28v236.34c0,127.26,10.66,130.28,150.87,145.42v42.43h-417.94v-42.43c130.52-13.62,136.59-22.72,136.59-148.46v-601.42c0-134.82-16.69-137.86-136.59-149.98v-42.41h390.51ZM8238.9,15649.65c18.17,9.07,59.03,19.67,110.5,19.67,101.43,0,227.07-51.47,227.07-242.19,0-166.52-108.99-233.11-236.15-233.11-43.89,0-75.68,7.55-84.77,18.15-12.11,10.61-16.65,28.76-16.65,69.64v367.85Z"/><path d="M9288.65,16147.65c-54.5,0-92.34-39.36-92.34-96.88,0-54.49,37.85-96.88,92.34-96.88s95.36,42.39,95.36,96.88c0,57.52-40.86,96.88-95.36,96.88Z"/><path d="M10398.12,15372.62c-25.73-99.9-68.12-198.3-210.41-198.3-118.08,0-158.95,86.29-158.95,165,0,104.45,66.61,157.42,192.25,222.52,181.65,93.86,260.37,163.48,260.37,307.29,0,158.94-137.75,280.04-333.03,280.04-90.82,0-169.53-25.72-231.59-49.95-12.11-42.39-30.28-145.33-40.87-227.06l46.93-12.11c30.27,101.42,96.88,233.11,254.3,233.11,108.99,0,175.6-75.69,175.6-174.09,0-116.55-62.07-163.48-195.28-236.13-158.94-86.29-248.25-158.94-248.25-299.73s112.02-261.88,311.83-261.88c84.77,0,168.02,22.71,199.81,28.76,6.06,54.51,12.11,115.05,24.21,213.45l-46.92,9.07Z"/><path d="M11511.99,16137.29c-19.73,0-36.42-1.52-56.15-3.03-110.8-7.54-169.99-36.25-236.77-129.94-56.16-77.05-110.8-172.24-159.37-249.31-30.35-48.34-50.08-57.42-127.49-57.42h-55.21v237.65c0,128.68,16.76,136.25,138.63,148.35v42.13h-403.67v-42.83c125.97-13.59,136.59-19.63,136.59-148.08v-602.89c0-128.43-16.69-132.96-136.59-146.56v-42.3h387.03c110.79,0,185.16,13.59,242.84,51.38,62.22,39.28,103.2,107.28,103.2,199.46,0,129.94-83.47,211.53-195.78,259.89,27.31,46.85,92.59,148.08,138.12,216.07,56.15,80.09,84.99,117.85,119.9,155.64,40.97,43.81,75.88,60.43,110.79,69.49l-6.07,42.32ZM10949.66,15646.61c78.71,0,128.67-12.11,166.52-43.89,59.03-43.89,83.25-104.45,83.25-186.18,0-161.98-107.47-221.02-224.03-221.02-43.9,0-69.63,6.06-80.23,15.15-13.62,10.59-18.16,25.72-18.16,65.08v370.87h72.65Z"/><path d="M12332.58,15878.07c-9.14,46.25-54.85,201.39-70.1,247.64h-708.63v-41.78c138.68-13.41,150.87-20.88,150.87-147.67v-602.49c0-128.66-15.17-136.23-136.59-148.35v-42.37h405.71v42.36c-121.88,12.11-138.63,18.16-138.63,148.29v615.85c0,92.31,12.19,113.48,99.03,115,1.52,0,113.39,1.5,122.53,1.5,77.71,0,100.57-8.96,135.62-46.25,38.1-38.78,70.11-98.47,92.96-153.66l47.24,11.94Z"/></svg>